# xmcd
#
# Track frame offsets: 
#        150
#        30965
#        57510
#        101880
#        187055
#        246880
#        262512
#
# Disc length: 3763 seconds
#
# Revision: 2
# Processed by: cddbd v1.5.2PL0 Copyright (c) Steve Scherf et al.
# Submitted via: ExactAudioCopyFreeDBPlugin 1.0
#
DISCID=570eb107
DTITLE=Ellen van Lier, Robert Holl, David Lutz, Schubert - Schubert Ed
DTITLE=ition CD 69, Lieder after Schiller II
DYEAR=2014
DGENRE=Classical
TTITLE0=F. Schiller Lieder: Der Alpenjäger D588
TTITLE1=F. Schiller Lieder: Der Flüchtling D402
TTITLE2=F. Schiller Lieder: Ritter Toggenburg D397
TTITLE3=F. Schiller Lieder: Die Bürgschaft D246
TTITLE4=F. Schiller Lieder: Die Erwartung D159
TTITLE5=F. Schiller Lieder: Dithyrambe D801
TTITLE6=Duett. Mignon und der Harfner D877 No.1
EXTD=
EXTT0=
EXTT1=
EXTT2=
EXTT3=
EXTT4=
EXTT5=
EXTT6=
PLAYORDER=
